<?xml version="1.0" encoding="utf-8"?>
<!-- Generator: Adobe Illustrator 28.1.0, SVG Export Plug-In . SVG Version: 6.00 Build 0)  -->
<svg version="1.1" id="Layer_1" xmlns="http://www.w3.org/2000/svg" xmlns:xlink="http://www.w3.org/1999/xlink" x="0px" y="0px"
	 viewBox="0 0 301.5 356.2" style="enable-background:new 0 0 301.5 356.2;" xml:space="preserve">
<style type="text/css">
	.st0{fill:#004D57;}
</style>
<path class="st0" d="M0.2,8.6L0,172.9c0,0,9.7,80.7,93.2,79.4l0.2-166.9C93.4,85.4,77.9,5.8,0.2,8.6z"/>
<path class="st0" d="M280.3,1.1c6.5-2.9,14.1,0.4,16.2,7.2c2.8,8.7,5.4,24.2,4.9,51.9c-1,54.9-102.4,86.3-145.8,114.7
	c-3.3,2.1-3,5.2,0.5,6.8c26.9,12.3,104.3,47.8,123.4,70.4c23.6,27.9,21.9,44,21.9,44l-0.1,28c0,7-1.2,14-3.8,20.6
	c-0.9,2.2-2,4.7-3.2,7.2c-2,3.9-6.8,5.4-10.6,3.4c-24.1-12.3-107.4-55.1-142-78.6c-5.7-3.9-10.7-8.6-14.9-14
	c-7.1-9.2-16.7-24.7-17.1-40.6l0.2-90c0,0-2-43.3,82.3-82.6c3.8-1.8,7.5-3.7,11.1-5.8C218.2,34.7,259.9,10.3,280.3,1.1L280.3,1.1z"
	/>
</svg>
